<svg xmlns="http://www.w3.org/2000/svg" xmlns:svg="http://www.w3.org/2000/svg" id="FxSymbol0-058" focusable="false" role="presentation" version="1.1" viewBox="0 0 50 50"><metadata id="metadata29"/><g id="g22"><title id="title2"/><title id="title4">ManagementGroups</title><path id="path6" d="M 35,21.4 34.712,22.092 25.768,11.36 25,12 24.232,11.36 15.288,22.092 15,21.4 9.077,35.615 10.923,36.385 15,26.6 l 4.077,9.785 1.846,-0.77 -4.767,-11.44 8.844,-10.613 8.844,10.613 -4.767,11.44 1.846,0.77 L 35,26.6 l 4.077,9.785 1.846,-0.77 z" class="msportalfx-svg-c14" style="fill:#7fba00"/><circle id="circle8" cx="40" cy="36" r="3" class="msportalfx-svg-c16" style="fill:#3999c6"/><circle id="circle10" cx="30" cy="36" r="3" class="msportalfx-svg-c16" style="fill:#3999c6"/><circle id="circle12" cx="25" cy="12" r="5" class="msportalfx-svg-c17" style="fill:#804998"/><circle id="circle14" cx="15" cy="24" r="4" class="msportalfx-svg-c19" style="fill:#0072c6"/><circle id="circle16" cx="35" cy="24" r="4" class="msportalfx-svg-c19" style="fill:#0072c6"/><circle id="circle18" cx="20" cy="36" r="3" class="msportalfx-svg-c16" style="fill:#3999c6"/><circle id="circle20" cx="10" cy="36" r="3" class="msportalfx-svg-c16" style="fill:#3999c6"/></g></svg>